<svg xmlns="http://www.w3.org/2000/svg" xmlns:xlink="http://www.w3.org/1999/xlink" width="24" height="23"><defs><path id="vsoo0idxoa" d="M.805.631h22.537V23H.805z"/></defs><g fill="none" fill-rule="evenodd"><mask id="qk0u0d1brb" fill="#fff"><use xlink:href="#vsoo0idxoa"/></mask><path fill="#40bac5" d="M14.85 9.108l-.152 1.97h-2.036v6.423H10.09v-6.423H8.717v-1.97h1.373V7.784c0-.584.014-1.484.442-2.042.45-.59 1.068-.991 2.13-.991 1.731 0 2.461.244 2.461.244l-.343 2.019s-.572-.164-1.106-.164c-.534 0-1.012.189-1.012.72v1.537h2.189zM12.074.63C5.85.63.805 5.638.805 11.815S5.85 23 12.073 23c6.224 0 11.269-5.008 11.269-11.185 0-6.177-5.045-11.184-11.269-11.184z" mask="url(#qk0u0d1brb)"/></g></svg>