<svg xmlns="http://www.w3.org/2000/svg" xmlns:xlink="http://www.w3.org/1999/xlink" width="23" height="23"><defs><path id="sksx29piba" d="M0 .631h22.369V23H0z"/></defs><g fill="none" fill-rule="evenodd"><mask id="85osyeifhb" fill="#fff"><use xlink:href="#sksx29piba"/></mask><path fill="#40bac5" d="M17.428 14.663c0 1.867-1.612 3.386-3.594 3.386H8.536c-1.983 0-3.594-1.519-3.594-3.386V8.967c0-1.866 1.611-3.385 3.594-3.385h5.298c1.982 0 3.594 1.519 3.594 3.385v5.696zM11.185.63C5.008.63 0 5.64 0 11.815 0 17.992 5.008 23 11.185 23c6.177 0 11.184-5.008 11.184-11.185C22.37 5.639 17.362.63 11.185.63z" mask="url(#85osyeifhb)"/><path fill="#40bac5" d="M11.185 9.729c-1.151 0-2.088.936-2.088 2.086s.937 2.087 2.088 2.087a2.09 2.09 0 002.087-2.087 2.09 2.09 0 00-2.087-2.086"/><path fill="#40bac5" d="M14.574 9.277a.785.785 0 11-.001-1.571.785.785 0 01.001 1.571M11.184 15A3.187 3.187 0 018 11.815a3.19 3.19 0 013.185-3.186 3.19 3.19 0 013.186 3.186A3.188 3.188 0 0111.185 15m2.65-8.228h-5.3c-1.325 0-2.403.985-2.403 2.196v5.695c0 1.21 1.078 2.195 2.403 2.195h5.299c1.325 0 2.403-.984 2.403-2.195V8.968c0-1.211-1.078-2.196-2.403-2.196"/></g></svg>