<svg xmlns="http://www.w3.org/2000/svg" xmlns:xlink="http://www.w3.org/1999/xlink" width="28" height="28"><defs><path id="tema4j835a" d="M.105.768h27.232V28H.105z"/></defs><g transform="translate(0 -.768)" fill="none" fill-rule="evenodd"><mask id="btltme2jbb" fill="#fff"><use xlink:href="#tema4j835a"/></mask><path fill="#40bac5" d="M21.988 20.327h-3.255v-4.471c0-.876.143-2.415-1.467-2.415-1.323 0-1.699.984-1.699 2.129v4.757h-3.255v-9.175h3.255v1.18h.037c.75-1.108 1.662-1.484 2.932-1.484 2.469 0 3.452 1.556 3.452 3.81v5.669zM8.538 9.453a1.83 1.83 0 01-1.823-1.824 1.83 1.83 0 011.823-1.824c1.002 0 1.825.822 1.825 1.824a1.832 1.832 0 01-1.825 1.824zM6.912 20.327h3.254v-9.175H6.912v9.175zM13.72.767C6.201.768.105 6.865.105 14.385.105 21.904 6.201 28 13.72 28c7.52 0 13.617-6.096 13.617-13.616S21.24.768 13.72.768z" mask="url(#btltme2jbb)"/></g></svg>