<svg xmlns="http://www.w3.org/2000/svg" xmlns:xlink="http://www.w3.org/1999/xlink" width="24" height="23"><defs><path id="nw5z1k5i6a" d="M.816.631h22.537V23H.816z"/></defs><g fill="none" fill-rule="evenodd"><mask id="reericzhfb" fill="#fff"><use xlink:href="#nw5z1k5i6a"/></mask><path fill="#40bac5" d="M18.155 9.053l-.02.008c-.381.146.412 2.683-1.968 5.686 0 0-1.803 2.421-5.171 2.888-1.37.19-3.378.35-5.406-1.167 0 0 2.057.263 4.113-1.253 0 0-2.115-.175-2.615-1.926 0 0 .97 0 1.176-.028 0 0-2.263-.759-2.233-2.902 0 0 .764.336 1.19.291 0 0-1.91-1.414-.78-3.747 0 0 2.058 2.858 5.848 2.917 0 0-.323-2.479 1.85-3.238 0 0 1.852-.759 3.086.67 0 0 1.44-.233 1.763-.67 0 0-.089.879-1.087 1.518 0 0 .91-.001 1.558-.351 0 0-.91 1.128-1.304 1.304M12.085.63C5.862.63.815 5.64.815 11.815.816 17.992 5.863 23 12.086 23s11.268-5.008 11.268-11.185C23.353 5.639 18.308.63 12.085.63" mask="url(#reericzhfb)"/></g></svg>